<svg width="581" height="407" viewBox="0 0 581 407" fill="none" xmlns="http://www.w3.org/2000/svg">
<path d="M47.7014 357.243C74.0462 357.243 95.4028 288.387 95.4028 203.449C95.4028 118.511 74.0462 49.6555 47.7014 49.6555C21.3566 49.6555 0 118.511 0 203.449C0 288.387 21.3566 357.243 47.7014 357.243Z" fill="#0D0D04"/>
<path d="M510.118 357.243C548.968 357.243 580.463 288.387 580.463 203.449C580.463 118.511 548.968 49.6555 510.118 49.6555C471.267 49.6555 439.772 118.511 439.772 203.449C439.772 288.387 471.267 357.243 510.118 357.243Z" fill="#0D0D04"/>
<path d="M265.863 406.899C378.225 406.899 469.313 315.811 469.313 203.449C469.313 91.0874 378.225 0 265.863 0C153.501 0 62.4141 91.0874 62.4141 203.449C62.4141 315.811 153.501 406.899 265.863 406.899Z" fill="#0D0D04"/>
</svg>
