<svg width="580" height="554" viewBox="0 0 580 554" fill="none" xmlns="http://www.w3.org/2000/svg">
<path d="M47.6634 356.958C73.9871 356.958 95.3267 288.158 95.3267 203.287C95.3267 118.417 73.9871 49.6159 47.6634 49.6159C21.3396 49.6159 0 118.417 0 203.287C0 288.158 21.3396 356.958 47.6634 356.958Z" fill="#0D0D04"/>
<path d="M509.711 356.958C548.53 356.958 580 288.158 580 203.287C580 118.417 548.53 49.6159 509.711 49.6159C470.891 49.6159 439.422 118.417 439.422 203.287C439.422 288.158 470.891 356.958 509.711 356.958Z" fill="#0D0D04"/>
<path d="M265.652 406.574C377.924 406.574 468.939 315.56 468.939 203.287C468.939 91.0148 377.924 0 265.652 0C153.379 0 62.3644 91.0148 62.3644 203.287C62.3644 315.56 153.379 406.574 265.652 406.574Z" fill="#0D0D04"/>
<path d="M522.374 456.538C484.518 456.538 462.378 467.14 462.378 490.403V490.964H503.914C503.914 484.603 508.529 478.865 521.002 478.865C531.604 478.865 535.783 481.734 535.783 486.723C535.783 490.153 533.662 490.964 527.301 491.712L517.697 492.835C501.357 494.768 486.576 496.701 475.787 500.88C464.624 505.308 457.888 512.418 457.888 524.142C457.888 544.162 476.161 552.768 503.041 552.768C522.437 552.768 533.538 548.527 539.525 543.6V550.274H579.189V492.585C579.189 466.267 561.665 456.476 522.312 456.476L522.374 456.538ZM535.845 516.534C535.845 527.136 527.8 531.501 516.449 531.501C507.781 531.501 502.791 528.446 502.791 523.02C502.791 517.594 506.845 515.723 518.944 513.603L525.68 512.418C529.359 511.856 533.351 511.233 535.845 509.923V516.471V516.534Z" fill="#0D0D04"/>
<path d="M152.11 456.351C133.649 456.351 120.989 462.899 113.63 470.009C106.708 460.592 95.1699 456.351 80.2021 456.351C64.2365 456.351 52.1376 461.714 45.7763 468.824V458.846H0V550.336H46.5247V513.041C46.5247 496.514 46.5247 486.349 60.9312 486.349C70.7226 486.349 73.2172 492.086 73.2172 501.129V550.336H119.555V501.691C119.555 492.086 123.983 486.286 133.774 486.286C143.566 486.286 146.247 492.024 146.247 501.067V550.274H192.772V498.947C192.772 480.674 190.652 472.815 183.355 466.08C176.058 459.345 165.456 456.289 151.985 456.289L152.11 456.351Z" fill="#0D0D04"/>
<path d="M279.959 503.686C279.959 515.972 275.718 523.519 264.181 523.519C253.391 523.519 250.523 517.344 250.523 507.553V458.908H203.998V512.542C203.998 545.222 220.712 553.08 245.346 553.08C261.873 553.08 274.409 547.717 280.707 540.981V550.398H326.484V458.908H279.959V503.686Z" fill="#0D0D04"/>
<path d="M449.531 482.919V458.846H341.264V486.536H390.908L339.206 526.575V550.398H451.464V522.895H399.14L449.531 482.919Z" fill="#0D0D04"/>
</svg>
