<svg width="856" height="171" viewBox="0 0 856 171" fill="none" xmlns="http://www.w3.org/2000/svg">
<path d="M17.9609 143.687C27.8804 143.687 35.9218 117.553 35.9218 85.3143C35.9218 53.0758 27.8804 26.9414 17.9609 26.9414C8.04136 26.9414 0 53.0758 0 85.3143C0 117.553 8.04136 143.687 17.9609 143.687Z" fill="#0D0D04"/>
<path d="M213.289 149.37C229.533 149.37 242.702 120.58 242.702 85.0658C242.702 49.5518 229.533 20.7619 213.289 20.7619C197.045 20.7619 183.876 49.5518 183.876 85.0658C183.876 120.58 197.045 149.37 213.289 149.37Z" fill="#0D0D04"/>
<path d="M111.162 170.131C158.143 170.131 196.228 132.046 196.228 85.0657C196.228 38.0852 158.143 0 111.162 0C64.1816 0 26.0964 38.0852 26.0964 85.0657C26.0964 132.046 64.1816 170.131 111.162 170.131Z" fill="#0D0D04"/>
<path d="M798.662 36.8811C760.776 36.8811 738.618 47.4917 738.618 70.7726V71.3344H780.187C780.187 64.968 784.806 59.2258 797.289 59.2258C807.9 59.2258 812.081 62.0969 812.081 67.0901C812.081 70.523 809.959 71.3344 803.593 72.0834L793.981 73.2068C777.628 75.1417 762.836 77.0766 752.038 81.2584C740.865 85.6899 734.125 92.8052 734.125 104.539C734.125 124.575 752.412 133.188 779.313 133.188C798.724 133.188 809.834 128.944 815.826 124.013V130.691H855.522V72.9572C855.522 46.6179 837.984 36.8187 798.6 36.8187L798.662 36.8811ZM812.144 96.9247C812.144 107.535 804.092 111.904 792.733 111.904C784.057 111.904 779.064 108.846 779.064 103.416C779.064 97.9857 783.121 96.1133 795.229 93.9911L801.97 92.8052C805.653 92.2435 809.647 91.6194 812.144 90.3086V96.8622V96.9247Z" fill="#0D0D04"/>
<path d="M428.102 36.6938C409.627 36.6938 396.957 43.2474 389.592 50.3628C382.664 40.9381 371.117 36.6938 356.137 36.6938C340.159 36.6938 328.05 42.0615 321.684 49.1769V39.1904H275.871V130.754H322.433V93.4294C322.433 76.8893 322.433 66.7156 336.851 66.7156C346.65 66.7156 349.147 72.4578 349.147 81.5081V130.754H395.521V82.0698C395.521 72.4578 399.953 66.6532 409.752 66.6532C419.551 66.6532 422.235 72.3954 422.235 81.4456V130.691H468.797V79.3235C468.797 61.0358 466.675 53.1715 459.372 46.4306C452.069 39.6898 441.459 36.6314 427.977 36.6314L428.102 36.6938Z" fill="#0D0D04"/>
<path d="M556.053 84.067C556.053 96.3629 551.809 103.915 540.262 103.915C529.464 103.915 526.593 97.736 526.593 87.9368V39.2528H480.031V92.93C480.031 125.636 496.759 133.5 521.413 133.5C537.953 133.5 550.498 128.132 556.802 121.391V130.816H602.615V39.2528H556.053V84.067Z" fill="#0D0D04"/>
<path d="M725.761 63.2828V39.1904H617.408V66.9028H667.09L615.348 106.974V130.816H727.696V103.291H675.329L725.761 63.2828Z" fill="#0D0D04"/>
</svg>
