<svg width="580" height="97" viewBox="0 0 580 97" fill="none" xmlns="http://www.w3.org/2000/svg">
<path d="M522.791 0.249667C484.905 0.249667 462.747 10.8603 462.747 34.1412V34.703H504.316C504.316 28.3366 508.935 22.5944 521.418 22.5944C532.028 22.5944 536.21 25.4655 536.21 30.4587C536.21 33.8916 534.088 34.703 527.722 35.4519L518.11 36.5754C501.757 38.5103 486.965 40.4452 476.167 44.627C464.994 49.0585 458.253 56.1738 458.253 67.9079C458.253 87.9433 476.541 96.5566 503.442 96.5566C522.853 96.5566 533.963 92.3123 539.955 87.3815V94.06H579.651V36.3258C579.651 9.98647 562.113 0.187256 522.729 0.187256L522.791 0.249667ZM536.273 60.2933C536.273 70.9039 528.221 75.2729 516.861 75.2729C508.186 75.2729 503.192 72.2146 503.192 66.7844C503.192 61.3543 507.25 59.4818 519.358 57.3597L526.099 56.1738C529.781 55.6121 533.776 54.988 536.273 53.6772V60.2308V60.2933Z" fill="#0D0D04"/>
<path d="M152.231 0.0624168C133.756 0.0624168 121.086 6.61603 113.721 13.7314C106.793 4.30667 95.2458 0.0624168 80.2661 0.0624168C64.2878 0.0624168 52.1793 5.43014 45.8129 12.5455V2.55904H0V94.1224H46.5618V56.798C46.5618 40.2579 46.5619 30.0842 60.9798 30.0842C70.779 30.0842 73.2757 35.8264 73.2757 44.8766V94.1224H119.65V45.4384C119.65 35.8264 124.082 30.0218 133.881 30.0218C143.68 30.0218 146.364 35.764 146.364 44.8142V94.06H192.926V42.6921C192.926 24.4044 190.804 16.5401 183.501 9.79922C176.199 3.05836 165.588 0 152.106 0L152.231 0.0624168Z" fill="#0D0D04"/>
<path d="M280.183 47.4356C280.183 59.7315 275.938 67.2837 264.391 67.2837C253.594 67.2837 250.723 61.1046 250.723 51.3054V2.6214H204.161V56.2986C204.161 89.0043 220.888 96.8686 245.542 96.8686C262.082 96.8686 274.628 91.5009 280.932 84.76V94.1847H326.744V2.6214H280.183V47.4356Z" fill="#0D0D04"/>
<path d="M449.89 26.6514V2.55902H341.537V30.2714H391.219L339.477 70.3421V94.1848H451.825V66.6596H399.458L449.89 26.6514Z" fill="#0D0D04"/>
</svg>
